HIERARCHY
ROOT Hips
{
  OFFSET 2.26061 22.2878 23.7974
  CHANNELS 6 Xposition Yposition Zposition Zrotation Xrotation Yrotation
  JOINT LeftUpLeg
  {
    OFFSET 8.64259 1.95398 -2.38835
    CHANNELS 3 Zrotation Xrotation Yrotation
    JOINT LeftLeg
    {
      OFFSET 43.7702 0 0
      CHANNELS 3 Zrotation Xrotation Yrotation
      JOINT LeftFoot
      {
        OFFSET 40.6238 0 0
        CHANNELS 3 Zrotation Xrotation Yrotation
        JOINT LeftToeBase
        {
          OFFSET 12.7242 0 0
          CHANNELS 3 Zrotation Xrotation Yrotation
          End Site
          {
            OFFSET 0 0 0
          }
        }
      }
    }
  }
  JOINT RightUpLeg
  {
    OFFSET -8.2249 1.95398 -2.59336
    CHANNELS 3 Zrotation Xrotation Yrotation
    JOINT RightLeg
    {
      OFFSET 43.5653 0 0
      CHANNELS 3 Zrotation Xrotation Yrotation
      JOINT RightFoot
      {
        OFFSET 40.6238 0 0
        CHANNELS 3 Zrotation Xrotation Yrotation
        JOINT RightToeBase
        {
          OFFSET 12.7242 0 0
          CHANNELS 3 Zrotation Xrotation Yrotation
          End Site
          {
            OFFSET 0 0 0
          }
        }
      }
    }
  }
  JOINT Spine
  {
    OFFSET 0.165834 0.87714 6.61349
    CHANNELS 3 Zrotation Xrotation Yrotation
    JOINT Spine1
    {
      OFFSET 7.38963 1.71661e-005 0
      CHANNELS 3 Zrotation Xrotation Yrotation
      JOINT Spine2
      {
        OFFSET 11.9445 1.14441e-005 0
        CHANNELS 3 Zrotation Xrotation Yrotation
        JOINT Spine3
        {
          OFFSET 14.7254 4.19617e-005 0
          CHANNELS 3 Zrotation Xrotation Yrotation
          JOINT Spine4
          {
            OFFSET 10.9679 0 0
            CHANNELS 3 Zrotation Xrotation Yrotation
            JOINT RightShoulder
            {
              OFFSET 2.46616 -1.6653 3.69651
              CHANNELS 3 Zrotation Xrotation Yrotation
              JOINT RightArm
              {
                OFFSET 13.0012 0 0
                CHANNELS 3 Zrotation Xrotation Yrotation
                JOINT RightForeArm
                {
                  OFFSET 28.7848 1.52588e-005 0
                  CHANNELS 3 Zrotation Xrotation Yrotation
                  JOINT RightHand
                  {
                    OFFSET 26.5688 1.52588e-005 0
                    CHANNELS 3 Zrotation Xrotation Yrotation
                    End Site
                    {
                      OFFSET 0 0 0
                    }
                  }
                }
              }
            }
            JOINT LeftShoulder
            {
              OFFSET 2.38034 -1.29275 -3.7523
              CHANNELS 3 Zrotation Xrotation Yrotation
              JOINT LeftArm
              {
                OFFSET 16.3182 6.10351e-005 0
                CHANNELS 3 Zrotation Xrotation Yrotation
                JOINT LeftForeArm
                {
                  OFFSET 27.0901 0 0
                  CHANNELS 3 Zrotation Xrotation Yrotation
                  JOINT LeftHand
                  {
                    OFFSET 24.5451 1.52588e-005 0
                    CHANNELS 3 Zrotation Xrotation Yrotation
                    End Site
                    {
                      OFFSET 0 0 0
                    }
                  }
                }
              }
            }
            JOINT Neck
            {
              OFFSET 5.0226 -0.0266342 0
              CHANNELS 3 Zrotation Xrotation Yrotation
              JOINT Head
              {
                OFFSET 6.69363 2.86102e-005 0
                CHANNELS 3 Zrotation Xrotation Yrotation
                End Site
                {
                  OFFSET 0 0 0
                }
              }
            }
          }
        }
      }
    }
  }
}
MOTION
Frames:	9
Frame Time:	0.0416667
35.5392 97.8233 -247.546 -26.9879 -86.9433 -27.5355 -172.959 6.73247 87.2806 -10.5654 15.8669 -1.7007 63.543 4.52855 6.0635 29.2313 0.198208 1.65373 172.768 6.63712 91.8149 -13.8778 -1.00854 1.16453 67.1362 -3.05205 -1.66168 28.7221 -0.606942 9.23512 -0.105206 6.89562 -89.9232 13.0827 -0.171844 0.17484 1.41178 -0.163981 0.182229 -21.1234 -0.21645 0.115105 -1.11077 -0.216442 0.115114 92.0848 -55.2255 -96.6586 25.6914 -4.14724 9.79128 -32.6066 -42.3528 -54.5299 0.776396 -0.825976 5.04924 -104.893 -54.7227 58.9708 -19.6767 14.3456 5.60237 2.18621 13.0603 -29.0568 8.70355 0.865289 5.46404 11.5627 1.87576 2.08903 3.3074 1.37984 -0.137771 
35.5209 97.6436 -247.615 -40.8581 -86.2568 -41.335 -172.862 7.55472 87.3224 -12.0839 15.2641 -1.71273 64.1687 4.83597 6.46381 29.0577 0.0828831 1.3907 174.984 5.54458 92.1907 -12.3132 -9.43682 -1.72022 67.763 -3.85948 -2.08283 28.4317 0.0458607 -0.941714 -0.0935839 6.90942 -89.9674 13.0551 -0.170007 0.0861834 1.38413 -0.166051 0.0935719 -21.1511 -0.188057 0.031093 -1.13846 -0.188045 0.0311015 93.0316 -53.5736 -95.5541 25.8039 -6.54462 7.23234 -14.8773 -31.0767 -45.2353 -1.53689 -0.764757 7.68204 -104.791 -54.1625 58.8858 -20.7751 14.068 5.42403 1.74814 12.3558 -28.5554 11.207 1.03783 5.08478 12.1066 2.33241 2.11849 1.56443 1.80855 -0.195992 
35.5497 97.6475 -247.606 -49.6596 -85.667 -50.0703 -172.894 7.70725 87.3123 -12.6485 13.4638 -1.56081 64.6888 4.99136 5.58698 28.7638 -0.130604 1.15037 174.892 5.87433 92.2434 -12.7776 -8.98851 -1.50819 67.5969 -3.78535 -2.04828 28.7205 -0.0338861 0.480754 -0.0901551 6.91247 -89.9724 13.049 -0.165654 0.0756159 1.37805 -0.162163 0.0828247 -21.1572 -0.180722 0.022334 -1.14454 -0.180722 0.0223327 92.6128 -53.7737 -96.1389 24.1971 -7.29924 5.51312 -14.3505 -29.1596 -47.7536 -3.87763 -0.892388 6.95288 -105.067 -54.3477 58.5837 -19.7561 13.8682 5.16989 2.13523 12.2216 -29.4151 10.5988 0.978591 5.01603 10.9246 2.5373 1.50704 2.53764 2.20398 0.594378 
35.5402 97.5742 -247.366 -50.566 -85.5287 -51.1395 -172.908 7.79285 87.1459 -12.9912 15.031 -1.74549 64.1406 5.24349 8.07798 29.6244 0.622155 0.497991 175.036 6.17774 92.1526 -13.7305 -9.50568 -1.81216 68.0575 -3.94925 -2.11556 28.7881 0.0537301 -0.83552 -0.0974833 6.9217 -89.9432 13.0306 -0.166117 0.133995 1.35963 -0.160064 0.141161 -21.1756 -0.198713 0.0778792 -1.16294 -0.198725 0.077857 92.5331 -53.5858 -96.2878 23.7022 -7.83207 3.63183 -13.9624 -27.7612 -49.4528 -4.22256 -0.87543 6.45017 -105.579 -54.375 57.8993 -18.9025 13.2631 4.74253 2.44355 11.5831 -30.3456 12.0702 1.02876 4.44656 10.8793 2.43476 1.72998 2.38993 2.07104 0.841281 
35.5397 97.479 -247.117 -51.1096 -85.6594 -51.8415 -173.239 7.77768 86.8062 -13.6172 14.2718 -1.45668 64.584 5.97871 8.00818 29.651 0.597351 1.01629 175.038 6.19845 92.0161 -14.4434 -9.20066 -1.96321 68.8539 -4.19568 -2.21465 28.2987 -0.0021936 -0.319589 -0.0993662 6.93589 -89.9038 13.0022 -0.151016 0.210842 1.33126 -0.141593 0.217281 -21.2039 -0.207402 0.155705 -1.19122 -0.207397 0.155716 92.4141 -53.6953 -96.4446 24.0045 -7.67895 2.32453 -14.2523 -27.0647 -49.9865 -5.85008 -0.998132 6.6748 -105.301 -54.3786 58.2782 -18.3281 13.1902 4.00874 2.83985 11.0045 -32.0995 12.3112 1.08687 4.74907 10.3972 2.67632 2.21397 2.19946 2.21681 0.833676 
35.6801 97.4211 -246.655 -49.3125 -86.1338 -50.0185 -173.487 7.44136 86.6458 -14.1096 13.195 -1.09762 65.4868 6.67549 6.80923 28.9998 0.0922811 0.823488 174.683 5.44883 91.8147 -14.0399 -9.29509 -1.7611 69.1826 -4.28172 -2.24402 28.1138 0.0101473 -0.620288 -0.0853042 6.98406 -89.8804 12.9058 -0.111961 0.252726 1.23486 -0.100727 0.257403 -21.3002 -0.182735 0.207396 -1.28754 -0.182735 0.207397 92.5413 -54.1222 -96.184 23.6406 -7.79325 0.902921 -14.7609 -27.6823 -50.2913 -4.87504 -0.90508 6.07165 -104.959 -54.3373 58.7265 -18.2567 12.8283 3.01545 3.55066 10.9772 -33.6043 13.186 1.13259 4.5696 10.2424 2.66978 2.39196 1.54039 2.16986 0.752127 
35.9342 97.3525 -246.003 -43.7587 -86.2146 -44.3003 -173.242 7.36798 86.7293 -14.3511 13.8537 -1.35499 65.9165 7.33898 7.49798 29.5625 0.524316 1.04873 174.762 5.21264 91.8416 -14.075 -8.94868 -1.8784 69.6495 -4.45207 -2.31579 28.1729 -0.000830458 -0.419075 -0.0239276 7.00315 -89.8947 12.8675 0.00297002 0.210112 1.19657 0.0122147 0.209773 -21.3385 -0.0603189 0.201291 -1.32582 -0.0603128 0.201294 92.6484 -54.0039 -96.0464 23.9055 -7.52391 0.459529 -15.0578 -27.9392 -50.0726 -4.79601 -0.897985 5.93503 -105.191 -54.4161 58.4431 -18.376 12.9915 2.31347 3.4185 10.1263 -34.5818 13.4432 1.03764 3.7143 9.88856 2.7187 2.27202 1.69607 2.2545 0.827096 
36.2464 97.1262 -245.234 -26.5461 -86.762 -27.2096 -173.66 7.4833 86.2893 -15.2593 15.6768 -1.18069 66.1717 8.34796 9.4551 30.1744 0.979462 1.48414 174.997 5.3273 91.8007 -15.1853 -7.69463 -2.2273 70.7816 -4.833 -2.46691 28.7185 0.0572379 -0.930238 -0.0609421 7.0373 -89.8916 12.7993 -0.0690818 0.224927 1.1283 -0.0591073 0.227743 -21.4067 -0.133487 0.193769 -1.39409 -0.133488 0.193768 93.0475 -53.5032 -95.542 24.1409 -7.72341 0.720791 -15.2582 -28.1015 -50.4042 -4.02756 -0.8423 5.74014 -105.644 -54.709 57.9484 -18.3824 13.5385 1.97897 3.30293 9.91519 -35.0526 12.5898 0.897641 3.15474 9.851 2.69465 2.24635 1.2728 2.24202 0.994955 
36.8559 96.8819 -244.421 -15.2747 -86.1547 -15.409 -173.962 8.87927 86.1685 -17.4779 16.2132 -0.875954 66.8106 8.79408 10.3138 29.9846 0.923006 0.336987 175.916 6.9005 92.3311 -17.7639 -6.16933 -2.71585 71.3377 -5.24705 -2.67637 30.9081 0.168175 -1.34612 -0.0574486 7.0218 -89.9407 12.8303 -0.0856231 0.128819 1.15932 -0.0798686 0.132458 -21.3758 -0.120384 0.0971345 -1.36318 -0.120385 0.0971249 91.4656 -53.8447 -97.8133 23.4838 -7.29442 2.43533 -14.1149 -27.5714 -49.3946 -4.94779 -0.839791 4.84187 -105.344 -54.766 58.3779 -18.6377 14.7056 1.22933 3.50704 11.4513 -34.8847 13.7043 1.19521 4.7156 9.3404 2.95811 2.17312 1.4707 2.52443 0.937596 
